# xmcd CD database file
#
# Track frame offsets:
#	150
#	21586
#	34687
#	56917
#	70199
#	87474
#	97446
#	107159
#	124709
#	138072
#	153566
#	167968
#	189257
#	205251
#	221537
#	242351
#	262744
#	276084
#	303198
#	328419
#
# Disc length: 4528 seconds
#
# Revision: 1
# Processed by: cddbd v1.5.2PL0 Copyright (c) Steve Scherf et al.
# Submitted via: CDex 1.70beta2
#
DISCID=2711ae14
DTITLE=Tony Bennett/Bill Evans - The Complete Tony Bennett/Bill Evans Recordings (2 of 2)
DYEAR=2009
DGENRE=Standards
TTITLE0=Young and Foolish (alternate, take 4)
TTITLE1=The Touch of Your Lips (alternate, take 1)
TTITLE2=Some Other Time (alternate, take 7)
TTITLE3=When in Rome (alternate, take 11)
TTITLE4=Waltz For Debby (alternate, take 8)
TTITLE5=The Bad and the Beautiful (alternate, take 1)
TTITLE6=The Bad and the Beautiful (alternate, take 2)
TTITLE7=Make Someone Happy (alternate, take 5)
TTITLE8=You're Nearer (alternate, take 9)
TTITLE9=A Child Is Born (alternate, take 2)
TTITLE10=A Child Is Born (alternate, take 7)
TTITLE11=The Two Lonely People (alternate, take 5)
TTITLE12=You Don't Know What Love Is (alternate, take 16)
TTITLE13=You Don't Know What Love Is (alternate, take 18)
TTITLE14=Maybe September (alternate, take 5)
TTITLE15=Maybe September (alternate, take 8)
TTITLE16=Lonely Girl (alternate, take 1)
TTITLE17=You Must Believe in Spring (alternate, take 1)
TTITLE18=You Must Believe in Spring (alternate, take 4)
TTITLE19=Who Can I Turn To? (alternate, take 6)
EXTD=YEAR: 2009
EXTT0=
EXTT1=
EXTT2=
EXTT3=
EXTT4=
EXTT5=
EXTT6=
EXTT7=
EXTT8=
EXTT9=
EXTT10=
EXTT11=
EXTT12=
EXTT13=
EXTT14=
EXTT15=
EXTT16=
EXTT17=
EXTT18=
EXTT19=
PLAYORDER=
